<?xml version="1.0" encoding="UTF-8" standalone="no"?>
<!DOCTYPE svg PUBLIC "-//W3C//DTD SVG 1.1//EN"
 "http://www.w3.org/Graphics/SVG/1.1/DTD/svg11.dtd">
<!-- Generated by graphviz version 8.1.0 (20230707.0739)
 -->
<!-- Pages: 1 -->
<svg width="938pt" height="134pt"
 viewBox="0.00 0.00 937.50 134.00" xmlns="http://www.w3.org/2000/svg" xmlns:xlink="http://www.w3.org/1999/xlink">
<g id="graph0" class="graph" transform="scale(1 1) rotate(0) translate(4 130)">
<polygon fill="white" stroke="none" points="-4,4 -4,-130 933.5,-130 933.5,4 -4,4"/>
<!-- 4567015440 -->
<g id="node1" class="node">
<title>4567015440</title>
<polygon fill="none" stroke="black" points="637.5,-89.5 637.5,-125.5 719,-125.5 719,-89.5 637.5,-89.5"/>
<text text-anchor="middle" x="648.5" y="-102.7" font-family="Times,serif" font-size="14.00">e</text>
<polyline fill="none" stroke="black" points="659.5,-90 659.5,-125.5"/>
<text text-anchor="middle" x="689.25" y="-102.7" font-family="Times,serif" font-size="14.00">data 4.0</text>
</g>
<!-- 4567012752/ -->
<g id="node10" class="node">
<title>4567012752/</title>
<ellipse fill="none" stroke="black" cx="782" cy="-83.5" rx="27" ry="18"/>
<text text-anchor="middle" x="782" y="-78.45" font-family="Times,serif" font-size="14.00">/</text>
</g>
<!-- 4567015440&#45;&gt;4567012752/ -->
<g id="edge12" class="edge">
<title>4567015440&#45;&gt;4567012752/</title>
<path fill="none" stroke="black" d="M718.88,-98.15C727.67,-96.08 736.93,-93.9 745.54,-91.86"/>
<polygon fill="black" stroke="black" points="746.08,-95.1 755.01,-89.39 744.47,-88.28 746.08,-95.1"/>
</g>
<!-- 4567015440&#45; -->
<g id="node2" class="node">
<title>4567015440&#45;</title>
<ellipse fill="none" stroke="black" cx="574.5" cy="-107.5" rx="27" ry="18"/>
<text text-anchor="middle" x="574.5" y="-102.45" font-family="Times,serif" font-size="14.00">&#45;</text>
</g>
<!-- 4567015440&#45;&#45;&gt;4567015440 -->
<g id="edge1" class="edge">
<title>4567015440&#45;&#45;&gt;4567015440</title>
<path fill="none" stroke="black" d="M601.97,-107.5C609.67,-107.5 618.35,-107.5 627,-107.5"/>
<polygon fill="black" stroke="black" points="626.88,-111 636.88,-107.5 626.88,-104 626.88,-111"/>
</g>
<!-- 4567042960 -->
<g id="node3" class="node">
<title>4567042960</title>
<polygon fill="none" stroke="black" points="2.62,-55.5 2.62,-91.5 84.12,-91.5 84.12,-55.5 2.62,-55.5"/>
<text text-anchor="middle" x="13.62" y="-68.7" font-family="Times,serif" font-size="14.00">a</text>
<polyline fill="none" stroke="black" points="24.62,-56 24.62,-91.5"/>
<text text-anchor="middle" x="54.38" y="-68.7" font-family="Times,serif" font-size="14.00">data 2.0</text>
</g>
<!-- 4567042960&#45;&gt;4567015440&#45; -->
<g id="edge6" class="edge">
<title>4567042960&#45;&gt;4567015440&#45;</title>
<path fill="none" stroke="black" d="M84.01,-83.79C126.07,-93.8 194.63,-107.5 254.75,-107.5 254.75,-107.5 254.75,-107.5 362.75,-107.5 423.58,-107.5 494.29,-107.5 536.39,-107.5"/>
<polygon fill="black" stroke="black" points="536.22,-111 546.22,-107.5 536.22,-104 536.22,-111"/>
</g>
<!-- 4567010960* -->
<g id="node5" class="node">
<title>4567010960*</title>
<ellipse fill="none" stroke="black" cx="361.75" cy="-60.5" rx="27" ry="18"/>
<text text-anchor="middle" x="361.75" y="-55.45" font-family="Times,serif" font-size="14.00">*</text>
</g>
<!-- 4567042960&#45;&gt;4567010960* -->
<g id="edge7" class="edge">
<title>4567042960&#45;&gt;4567010960*</title>
<path fill="none" stroke="black" d="M84.12,-71.87C145.86,-69.33 263.93,-64.48 323.87,-62.02"/>
<polygon fill="black" stroke="black" points="323.86,-65.48 333.71,-61.57 323.57,-58.48 323.86,-65.48"/>
</g>
<!-- 4567017232+ -->
<g id="node8" class="node">
<title>4567017232+</title>
<ellipse fill="none" stroke="black" cx="149.75" cy="-22.5" rx="27" ry="18"/>
<text text-anchor="middle" x="149.75" y="-17.45" font-family="Times,serif" font-size="14.00">+</text>
</g>
<!-- 4567042960&#45;&gt;4567017232+ -->
<g id="edge5" class="edge">
<title>4567042960&#45;&gt;4567017232+</title>
<path fill="none" stroke="black" d="M81.17,-55.52C93.16,-49.66 106.33,-43.23 117.84,-37.6"/>
<polygon fill="black" stroke="black" points="119,-40.44 126.45,-32.91 115.93,-34.15 119,-40.44"/>
</g>
<!-- 4567010960 -->
<g id="node4" class="node">
<title>4567010960</title>
<polygon fill="none" stroke="black" points="424.75,-42.5 424.75,-78.5 511.5,-78.5 511.5,-42.5 424.75,-42.5"/>
<text text-anchor="middle" x="436.12" y="-55.7" font-family="Times,serif" font-size="14.00">d</text>
<polyline fill="none" stroke="black" points="447.5,-43 447.5,-78.5"/>
<text text-anchor="middle" x="479.5" y="-55.7" font-family="Times,serif" font-size="14.00">data &#45;2.0</text>
</g>
<!-- 4567010960&#45;&gt;4567015440&#45; -->
<g id="edge10" class="edge">
<title>4567010960&#45;&gt;4567015440&#45;</title>
<path fill="none" stroke="black" d="M508.88,-78.4C519.68,-83.27 531.24,-88.47 541.55,-93.11"/>
<polygon fill="black" stroke="black" points="539.81,-96.62 550.37,-97.53 542.69,-90.24 539.81,-96.62"/>
</g>
<!-- 4567010960&#45;&gt;4567012752/ -->
<g id="edge11" class="edge">
<title>4567010960&#45;&gt;4567012752/</title>
<path fill="none" stroke="black" d="M511.19,-63.6C572.6,-68.13 685.83,-76.48 744.15,-80.78"/>
<polygon fill="black" stroke="black" points="743.82,-84.34 754.05,-81.59 744.33,-77.36 743.82,-84.34"/>
</g>
<!-- 4567010960*&#45;&gt;4567010960 -->
<g id="edge2" class="edge">
<title>4567010960*&#45;&gt;4567010960</title>
<path fill="none" stroke="black" d="M389.09,-60.5C396.73,-60.5 405.36,-60.5 414.03,-60.5"/>
<polygon fill="black" stroke="black" points="413.95,-64 423.95,-60.5 413.95,-57 413.95,-64"/>
</g>
<!-- 4567009424 -->
<g id="node6" class="node">
<title>4567009424</title>
<polygon fill="none" stroke="black" points="0,-0.5 0,-36.5 86.75,-36.5 86.75,-0.5 0,-0.5"/>
<text text-anchor="middle" x="11.38" y="-13.7" font-family="Times,serif" font-size="14.00">b</text>
<polyline fill="none" stroke="black" points="22.75,-1 22.75,-36.5"/>
<text text-anchor="middle" x="54.75" y="-13.7" font-family="Times,serif" font-size="14.00">data &#45;3.0</text>
</g>
<!-- 4567009424&#45;&gt;4567017232+ -->
<g id="edge9" class="edge">
<title>4567009424&#45;&gt;4567017232+</title>
<path fill="none" stroke="black" d="M86.53,-20.12C94.76,-20.43 103.33,-20.76 111.39,-21.07"/>
<polygon fill="black" stroke="black" points="111.23,-24.6 121.36,-21.49 111.5,-17.61 111.23,-24.6"/>
</g>
<!-- 4567017232 -->
<g id="node7" class="node">
<title>4567017232</title>
<polygon fill="none" stroke="black" points="212.75,-4.5 212.75,-40.5 298.75,-40.5 298.75,-4.5 212.75,-4.5"/>
<text text-anchor="middle" x="223.75" y="-17.7" font-family="Times,serif" font-size="14.00">c</text>
<polyline fill="none" stroke="black" points="234.75,-5 234.75,-40.5"/>
<text text-anchor="middle" x="266.75" y="-17.7" font-family="Times,serif" font-size="14.00">data &#45;1.0</text>
</g>
<!-- 4567017232&#45;&gt;4567010960* -->
<g id="edge8" class="edge">
<title>4567017232&#45;&gt;4567010960*</title>
<path fill="none" stroke="black" d="M298.45,-37.74C308.04,-41.24 318.11,-44.92 327.29,-48.28"/>
<polygon fill="black" stroke="black" points="325.99,-51.89 336.58,-52.04 328.39,-45.32 325.99,-51.89"/>
</g>
<!-- 4567017232+&#45;&gt;4567017232 -->
<g id="edge3" class="edge">
<title>4567017232+&#45;&gt;4567017232</title>
<path fill="none" stroke="black" d="M176.99,-22.5C184.69,-22.5 193.4,-22.5 202.13,-22.5"/>
<polygon fill="black" stroke="black" points="202.13,-26 212.13,-22.5 202.13,-19 202.13,-26"/>
</g>
<!-- 4567012752 -->
<g id="node9" class="node">
<title>4567012752</title>
<polygon fill="none" stroke="black" points="845,-65.5 845,-101.5 929.5,-101.5 929.5,-65.5 845,-65.5"/>
<text text-anchor="middle" x="855.25" y="-78.7" font-family="Times,serif" font-size="14.00">f</text>
<polyline fill="none" stroke="black" points="865.5,-66 865.5,-101.5"/>
<text text-anchor="middle" x="897.5" y="-78.7" font-family="Times,serif" font-size="14.00">data &#45;0.5</text>
</g>
<!-- 4567012752/&#45;&gt;4567012752 -->
<g id="edge4" class="edge">
<title>4567012752/&#45;&gt;4567012752</title>
<path fill="none" stroke="black" d="M809.32,-83.5C816.97,-83.5 825.6,-83.5 834.24,-83.5"/>
<polygon fill="black" stroke="black" points="834.12,-87 844.12,-83.5 834.12,-80 834.12,-87"/>
</g>
</g>
</svg>
