<?xml version="1.0" encoding="UTF-8" standalone="no"?>
<!DOCTYPE svg PUBLIC "-//W3C//DTD SVG 1.1//EN"
 "http://www.w3.org/Graphics/SVG/1.1/DTD/svg11.dtd">
<!-- Generated by graphviz version 9.0.0 (20230911.1827)
 -->
<!-- Pages: 1 -->
<svg width="938pt" height="134pt"
 viewBox="0.00 0.00 937.50 134.00" xmlns="http://www.w3.org/2000/svg" xmlns:xlink="http://www.w3.org/1999/xlink">
<g id="graph0" class="graph" transform="scale(1 1) rotate(0) translate(4 130)">
<polygon fill="white" stroke="none" points="-4,4 -4,-130 933.5,-130 933.5,4 -4,4"/>
<!-- 4357738512 -->
<g id="node1" class="node">
<title>4357738512</title>
<polygon fill="none" stroke="black" points="845,-23.5 845,-59.5 929.5,-59.5 929.5,-23.5 845,-23.5"/>
<text text-anchor="middle" x="855.25" y="-36.7" font-family="Times,serif" font-size="14.00">f</text>
<polyline fill="none" stroke="black" points="865.5,-24 865.5,-59.5"/>
<text text-anchor="middle" x="897.5" y="-36.7" font-family="Times,serif" font-size="14.00">data &#45;0.5</text>
</g>
<!-- 4357738512/ -->
<g id="node2" class="node">
<title>4357738512/</title>
<ellipse fill="none" stroke="black" cx="782" cy="-41.5" rx="27" ry="18"/>
<text text-anchor="middle" x="782" y="-36.45" font-family="Times,serif" font-size="14.00">/</text>
</g>
<!-- 4357738512/&#45;&gt;4357738512 -->
<g id="edge1" class="edge">
<title>4357738512/&#45;&gt;4357738512</title>
<path fill="none" stroke="black" d="M809.32,-41.5C816.72,-41.5 825.03,-41.5 833.39,-41.5"/>
<polygon fill="black" stroke="black" points="833.21,-45 843.21,-41.5 833.21,-38 833.21,-45"/>
</g>
<!-- 4357739088 -->
<g id="node3" class="node">
<title>4357739088</title>
<polygon fill="none" stroke="black" points="2.62,-34.5 2.62,-70.5 84.12,-70.5 84.12,-34.5 2.62,-34.5"/>
<text text-anchor="middle" x="13.62" y="-47.7" font-family="Times,serif" font-size="14.00">a</text>
<polyline fill="none" stroke="black" points="24.62,-35 24.62,-70.5"/>
<text text-anchor="middle" x="54.38" y="-47.7" font-family="Times,serif" font-size="14.00">data 2.0</text>
</g>
<!-- 4358176464+ -->
<g id="node6" class="node">
<title>4358176464+</title>
<ellipse fill="none" stroke="black" cx="149.75" cy="-103.5" rx="27" ry="18"/>
<text text-anchor="middle" x="149.75" y="-98.45" font-family="Times,serif" font-size="14.00">+</text>
</g>
<!-- 4357739088&#45;&gt;4358176464+ -->
<g id="edge7" class="edge">
<title>4357739088&#45;&gt;4358176464+</title>
<path fill="none" stroke="black" d="M82.06,-70.91C93.56,-76.53 106.09,-82.65 117.15,-88.06"/>
<polygon fill="black" stroke="black" points="115.34,-91.07 125.86,-92.31 118.41,-84.78 115.34,-91.07"/>
</g>
<!-- 4357735184* -->
<g id="node8" class="node">
<title>4357735184*</title>
<ellipse fill="none" stroke="black" cx="361.75" cy="-65.5" rx="27" ry="18"/>
<text text-anchor="middle" x="361.75" y="-60.45" font-family="Times,serif" font-size="14.00">*</text>
</g>
<!-- 4357739088&#45;&gt;4357735184* -->
<g id="edge10" class="edge">
<title>4357739088&#45;&gt;4357735184*</title>
<path fill="none" stroke="black" d="M84.44,-54.15C146.02,-56.68 263.06,-61.49 323.13,-63.95"/>
<polygon fill="black" stroke="black" points="322.7,-67.44 332.84,-64.35 322.99,-60.45 322.7,-67.44"/>
</g>
<!-- 4357739344&#45; -->
<g id="node10" class="node">
<title>4357739344&#45;</title>
<ellipse fill="none" stroke="black" cx="574.5" cy="-18.5" rx="27" ry="18"/>
<text text-anchor="middle" x="574.5" y="-13.45" font-family="Times,serif" font-size="14.00">&#45;</text>
</g>
<!-- 4357739088&#45;&gt;4357739344&#45; -->
<g id="edge11" class="edge">
<title>4357739088&#45;&gt;4357739344&#45;</title>
<path fill="none" stroke="black" d="M84.39,-42.11C126.49,-32.12 194.81,-18.5 254.75,-18.5 254.75,-18.5 254.75,-18.5 362.75,-18.5 423.32,-18.5 493.69,-18.5 535.85,-18.5"/>
<polygon fill="black" stroke="black" points="535.7,-22 545.7,-18.5 535.7,-15 535.7,-22"/>
</g>
<!-- 4357740688 -->
<g id="node4" class="node">
<title>4357740688</title>
<polygon fill="none" stroke="black" points="0,-89.5 0,-125.5 86.75,-125.5 86.75,-89.5 0,-89.5"/>
<text text-anchor="middle" x="11.38" y="-102.7" font-family="Times,serif" font-size="14.00">b</text>
<polyline fill="none" stroke="black" points="22.75,-90 22.75,-125.5"/>
<text text-anchor="middle" x="54.75" y="-102.7" font-family="Times,serif" font-size="14.00">data &#45;3.0</text>
</g>
<!-- 4357740688&#45;&gt;4358176464+ -->
<g id="edge9" class="edge">
<title>4357740688&#45;&gt;4358176464+</title>
<path fill="none" stroke="black" d="M87.13,-105.86C95.06,-105.56 103.28,-105.24 111.04,-104.95"/>
<polygon fill="black" stroke="black" points="111,-108.45 120.86,-104.57 110.73,-101.45 111,-108.45"/>
</g>
<!-- 4358176464 -->
<g id="node5" class="node">
<title>4358176464</title>
<polygon fill="none" stroke="black" points="212.75,-85.5 212.75,-121.5 298.75,-121.5 298.75,-85.5 212.75,-85.5"/>
<text text-anchor="middle" x="223.75" y="-98.7" font-family="Times,serif" font-size="14.00">c</text>
<polyline fill="none" stroke="black" points="234.75,-86 234.75,-121.5"/>
<text text-anchor="middle" x="266.75" y="-98.7" font-family="Times,serif" font-size="14.00">data &#45;1.0</text>
</g>
<!-- 4358176464&#45;&gt;4357735184* -->
<g id="edge8" class="edge">
<title>4358176464&#45;&gt;4357735184*</title>
<path fill="none" stroke="black" d="M299.05,-88.04C308.3,-84.66 317.98,-81.13 326.85,-77.88"/>
<polygon fill="black" stroke="black" points="327.96,-81.21 336.15,-74.49 325.56,-74.63 327.96,-81.21"/>
</g>
<!-- 4358176464+&#45;&gt;4358176464 -->
<g id="edge2" class="edge">
<title>4358176464+&#45;&gt;4358176464</title>
<path fill="none" stroke="black" d="M176.99,-103.5C184.36,-103.5 192.64,-103.5 200.99,-103.5"/>
<polygon fill="black" stroke="black" points="200.81,-107 210.81,-103.5 200.81,-100 200.81,-107"/>
</g>
<!-- 4357735184 -->
<g id="node7" class="node">
<title>4357735184</title>
<polygon fill="none" stroke="black" points="424.75,-47.5 424.75,-83.5 511.5,-83.5 511.5,-47.5 424.75,-47.5"/>
<text text-anchor="middle" x="436.12" y="-60.7" font-family="Times,serif" font-size="14.00">d</text>
<polyline fill="none" stroke="black" points="447.5,-48 447.5,-83.5"/>
<text text-anchor="middle" x="479.5" y="-60.7" font-family="Times,serif" font-size="14.00">data &#45;2.0</text>
</g>
<!-- 4357735184&#45;&gt;4357738512/ -->
<g id="edge5" class="edge">
<title>4357735184&#45;&gt;4357738512/</title>
<path fill="none" stroke="black" d="M511.84,-62.21C573.17,-57.49 685.22,-48.87 743.51,-44.38"/>
<polygon fill="black" stroke="black" points="743.55,-47.89 753.25,-43.64 743.02,-40.91 743.55,-47.89"/>
</g>
<!-- 4357735184&#45;&gt;4357739344&#45; -->
<g id="edge12" class="edge">
<title>4357735184&#45;&gt;4357739344&#45;</title>
<path fill="none" stroke="black" d="M510.08,-47.06C520.48,-42.38 531.51,-37.41 541.4,-32.96"/>
<polygon fill="black" stroke="black" points="542.54,-36.28 550.22,-28.98 539.66,-29.9 542.54,-36.28"/>
</g>
<!-- 4357735184*&#45;&gt;4357735184 -->
<g id="edge3" class="edge">
<title>4357735184*&#45;&gt;4357735184</title>
<path fill="none" stroke="black" d="M389.09,-65.5C396.48,-65.5 404.79,-65.5 413.17,-65.5"/>
<polygon fill="black" stroke="black" points="413.04,-69 423.04,-65.5 413.04,-62 413.04,-69"/>
</g>
<!-- 4357739344 -->
<g id="node9" class="node">
<title>4357739344</title>
<polygon fill="none" stroke="black" points="637.5,-0.5 637.5,-36.5 719,-36.5 719,-0.5 637.5,-0.5"/>
<text text-anchor="middle" x="648.5" y="-13.7" font-family="Times,serif" font-size="14.00">e</text>
<polyline fill="none" stroke="black" points="659.5,-1 659.5,-36.5"/>
<text text-anchor="middle" x="689.25" y="-13.7" font-family="Times,serif" font-size="14.00">data 4.0</text>
</g>
<!-- 4357739344&#45;&gt;4357738512/ -->
<g id="edge6" class="edge">
<title>4357739344&#45;&gt;4357738512/</title>
<path fill="none" stroke="black" d="M719.46,-27.59C727.85,-29.48 736.63,-31.47 744.86,-33.33"/>
<polygon fill="black" stroke="black" points="744.01,-36.73 754.53,-35.52 745.55,-29.9 744.01,-36.73"/>
</g>
<!-- 4357739344&#45;&#45;&gt;4357739344 -->
<g id="edge4" class="edge">
<title>4357739344&#45;&#45;&gt;4357739344</title>
<path fill="none" stroke="black" d="M601.97,-18.5C609.25,-18.5 617.41,-18.5 625.6,-18.5"/>
<polygon fill="black" stroke="black" points="625.58,-22 635.58,-18.5 625.58,-15 625.58,-22"/>
</g>
</g>
</svg>
