<?xml version="1.0" encoding="UTF-8" standalone="no"?>
<!DOCTYPE svg PUBLIC "-//W3C//DTD SVG 1.1//EN"
 "http://www.w3.org/Graphics/SVG/1.1/DTD/svg11.dtd">
<!-- Generated by graphviz version 9.0.0 (20230911.1827)
 -->
<!-- Pages: 1 -->
<svg width="406pt" height="100pt"
 viewBox="0.00 0.00 405.75 100.00" xmlns="http://www.w3.org/2000/svg" xmlns:xlink="http://www.w3.org/1999/xlink">
<g id="graph0" class="graph" transform="scale(1 1) rotate(0) translate(4 96)">
<polygon fill="white" stroke="none" points="-4,4 -4,-96 401.75,-96 401.75,4 -4,4"/>
<!-- 4387138064 -->
<g id="node1" class="node">
<title>4387138064</title>
<polygon fill="none" stroke="black" points="0,-55.5 0,-91.5 131.75,-91.5 131.75,-55.5 0,-55.5"/>
<text text-anchor="middle" x="25.62" y="-68.7" font-family="Times,serif" font-size="14.00">anders</text>
<polyline fill="none" stroke="black" points="51.25,-56 51.25,-91.5"/>
<text text-anchor="middle" x="91.5" y="-68.7" font-family="Times,serif" font-size="14.00">data Anders</text>
</g>
<!-- 4393855184+ -->
<g id="node4" class="node">
<title>4393855184+</title>
<ellipse fill="none" stroke="black" cx="194.75" cy="-45.5" rx="27" ry="18"/>
<text text-anchor="middle" x="194.75" y="-40.45" font-family="Times,serif" font-size="14.00">+</text>
</g>
<!-- 4387138064&#45;&gt;4393855184+ -->
<g id="edge2" class="edge">
<title>4387138064&#45;&gt;4393855184+</title>
<path fill="none" stroke="black" d="M132.17,-59.09C140.9,-57.16 149.58,-55.25 157.56,-53.49"/>
<polygon fill="black" stroke="black" points="158.17,-56.94 167.18,-51.36 156.66,-50.1 158.17,-56.94"/>
</g>
<!-- 4393854992 -->
<g id="node2" class="node">
<title>4393854992</title>
<polygon fill="none" stroke="black" points="22.12,-0.5 22.12,-36.5 109.62,-36.5 109.62,-0.5 22.12,-0.5"/>
<text text-anchor="middle" x="36.88" y="-13.7" font-family="Times,serif" font-size="14.00">bo</text>
<polyline fill="none" stroke="black" points="51.62,-1 51.62,-36.5"/>
<text text-anchor="middle" x="80.62" y="-13.7" font-family="Times,serif" font-size="14.00">data Bo</text>
</g>
<!-- 4393854992&#45;&gt;4393855184+ -->
<g id="edge3" class="edge">
<title>4393854992&#45;&gt;4393855184+</title>
<path fill="none" stroke="black" d="M109.83,-27.64C125.41,-30.96 142.84,-34.67 157.76,-37.84"/>
<polygon fill="black" stroke="black" points="156.62,-41.18 167.13,-39.83 158.07,-34.33 156.62,-41.18"/>
</g>
<!-- 4393855184 -->
<g id="node3" class="node">
<title>4393855184</title>
<polygon fill="none" stroke="black" points="257.75,-27.5 257.75,-63.5 397.75,-63.5 397.75,-27.5 257.75,-27.5"/>
<text text-anchor="middle" x="279.62" y="-40.7" font-family="Times,serif" font-size="14.00">claus</text>
<polyline fill="none" stroke="black" points="301.5,-28 301.5,-63.5"/>
<text text-anchor="middle" x="349.62" y="-40.7" font-family="Times,serif" font-size="14.00">data AndersBo</text>
</g>
<!-- 4393855184+&#45;&gt;4393855184 -->
<g id="edge1" class="edge">
<title>4393855184+&#45;&gt;4393855184</title>
<path fill="none" stroke="black" d="M221.94,-45.5C229.16,-45.5 237.39,-45.5 245.99,-45.5"/>
<polygon fill="black" stroke="black" points="245.94,-49 255.94,-45.5 245.94,-42 245.94,-49"/>
</g>
</g>
</svg>
