<?xml version="1.0" encoding="UTF-8" standalone="no"?>
<!DOCTYPE svg PUBLIC "-//W3C//DTD SVG 1.1//EN"
 "http://www.w3.org/Graphics/SVG/1.1/DTD/svg11.dtd">
<!-- Generated by graphviz version 10.0.1 (20240210.2158)
 -->
<!-- Pages: 1 -->
<svg width="515pt" height="100pt"
 viewBox="0.00 0.00 515.00 100.00" xmlns="http://www.w3.org/2000/svg" xmlns:xlink="http://www.w3.org/1999/xlink">
<g id="graph0" class="graph" transform="scale(1 1) rotate(0) translate(4 96)">
<polygon fill="white" stroke="none" points="-4,4 -4,-96 511,-96 511,4 -4,4"/>
<!-- 4485233424 -->
<g id="node1" class="node">
<title>4485233424</title>
<polygon fill="none" stroke="black" points="424.75,-31.5 424.75,-67.5 507,-67.5 507,-31.5 424.75,-31.5"/>
<text text-anchor="middle" x="436.12" y="-44.7" font-family="Times,serif" font-size="14.00">d</text>
<polyline fill="none" stroke="black" points="447.5,-32 447.5,-67.5"/>
<text text-anchor="middle" x="477.25" y="-44.7" font-family="Times,serif" font-size="14.00">data 2.0</text>
</g>
<!-- 4485233424&#45; -->
<g id="node2" class="node">
<title>4485233424&#45;</title>
<ellipse fill="none" stroke="black" cx="361.75" cy="-49.5" rx="27" ry="18"/>
<text text-anchor="middle" x="361.75" y="-44.45" font-family="Times,serif" font-size="14.00">&#45;</text>
</g>
<!-- 4485233424&#45;&#45;&gt;4485233424 -->
<g id="edge1" class="edge">
<title>4485233424&#45;&#45;&gt;4485233424</title>
<path fill="none" stroke="black" d="M389.05,-49.5C396.44,-49.5 404.75,-49.5 413.09,-49.5"/>
<polygon fill="black" stroke="black" points="412.87,-53 422.87,-49.5 412.87,-46 412.87,-53"/>
</g>
<!-- 4485232272 -->
<g id="node3" class="node">
<title>4485232272</title>
<polygon fill="none" stroke="black" points="2.62,-0.5 2.62,-36.5 84.12,-36.5 84.12,-0.5 2.62,-0.5"/>
<text text-anchor="middle" x="13.62" y="-13.7" font-family="Times,serif" font-size="14.00">a</text>
<polyline fill="none" stroke="black" points="24.62,-1 24.62,-36.5"/>
<text text-anchor="middle" x="54.38" y="-13.7" font-family="Times,serif" font-size="14.00">data 2.0</text>
</g>
<!-- 4485232720+ -->
<g id="node6" class="node">
<title>4485232720+</title>
<ellipse fill="none" stroke="black" cx="149.75" cy="-26.5" rx="27" ry="18"/>
<text text-anchor="middle" x="149.75" y="-21.45" font-family="Times,serif" font-size="14.00">+</text>
</g>
<!-- 4485232272&#45;&gt;4485232720+ -->
<g id="edge4" class="edge">
<title>4485232272&#45;&gt;4485232720+</title>
<path fill="none" stroke="black" d="M84.43,-21.57C93.2,-22.24 102.46,-22.95 111.14,-23.62"/>
<polygon fill="black" stroke="black" points="110.76,-27.1 121,-24.37 111.29,-20.12 110.76,-27.1"/>
</g>
<!-- 4485231184 -->
<g id="node4" class="node">
<title>4485231184</title>
<polygon fill="none" stroke="black" points="0,-55.5 0,-91.5 86.75,-91.5 86.75,-55.5 0,-55.5"/>
<text text-anchor="middle" x="11.38" y="-68.7" font-family="Times,serif" font-size="14.00">b</text>
<polyline fill="none" stroke="black" points="22.75,-56 22.75,-91.5"/>
<text text-anchor="middle" x="54.75" y="-68.7" font-family="Times,serif" font-size="14.00">data &#45;3.0</text>
</g>
<!-- 4485231184&#45;&gt;4485233424&#45; -->
<g id="edge3" class="edge">
<title>4485231184&#45;&gt;4485233424&#45;</title>
<path fill="none" stroke="black" d="M87.04,-70.26C149.21,-65.55 263.73,-56.86 323,-52.36"/>
<polygon fill="black" stroke="black" points="323.21,-55.86 332.92,-51.61 322.68,-48.88 323.21,-55.86"/>
</g>
<!-- 4485231184&#45;&gt;4485232720+ -->
<g id="edge6" class="edge">
<title>4485231184&#45;&gt;4485232720+</title>
<path fill="none" stroke="black" d="M85.33,-55.06C95.73,-50.38 106.76,-45.41 116.65,-40.96"/>
<polygon fill="black" stroke="black" points="117.79,-44.28 125.47,-36.98 114.91,-37.9 117.79,-44.28"/>
</g>
<!-- 4485232720 -->
<g id="node5" class="node">
<title>4485232720</title>
<polygon fill="none" stroke="black" points="212.75,-8.5 212.75,-44.5 298.75,-44.5 298.75,-8.5 212.75,-8.5"/>
<text text-anchor="middle" x="223.75" y="-21.7" font-family="Times,serif" font-size="14.00">c</text>
<polyline fill="none" stroke="black" points="234.75,-9 234.75,-44.5"/>
<text text-anchor="middle" x="266.75" y="-21.7" font-family="Times,serif" font-size="14.00">data &#45;1.0</text>
</g>
<!-- 4485232720&#45;&gt;4485233424&#45; -->
<g id="edge5" class="edge">
<title>4485232720&#45;&gt;4485233424&#45;</title>
<path fill="none" stroke="black" d="M299.05,-35.85C307.54,-37.73 316.38,-39.69 324.63,-41.51"/>
<polygon fill="black" stroke="black" points="323.81,-44.91 334.33,-43.66 325.32,-38.08 323.81,-44.91"/>
</g>
<!-- 4485232720+&#45;&gt;4485232720 -->
<g id="edge2" class="edge">
<title>4485232720+&#45;&gt;4485232720</title>
<path fill="none" stroke="black" d="M176.99,-26.5C184.36,-26.5 192.64,-26.5 200.99,-26.5"/>
<polygon fill="black" stroke="black" points="200.81,-30 210.81,-26.5 200.81,-23 200.81,-30"/>
</g>
</g>
</svg>
