<?xml version="1.0" encoding="UTF-8" standalone="no"?>
<!DOCTYPE svg PUBLIC "-//W3C//DTD SVG 1.1//EN"
 "http://www.w3.org/Graphics/SVG/1.1/DTD/svg11.dtd">
<!-- Generated by graphviz version 8.1.0 (20230707.0739)
 -->
<!-- Pages: 1 -->
<svg width="938pt" height="134pt"
 viewBox="0.00 0.00 937.50 134.00" xmlns="http://www.w3.org/2000/svg" xmlns:xlink="http://www.w3.org/1999/xlink">
<g id="graph0" class="graph" transform="scale(1 1) rotate(0) translate(4 130)">
<polygon fill="white" stroke="none" points="-4,4 -4,-130 933.5,-130 933.5,4 -4,4"/>
<!-- 4408616976 -->
<g id="node1" class="node">
<title>4408616976</title>
<polygon fill="none" stroke="black" points="0,-89.5 0,-125.5 86.75,-125.5 86.75,-89.5 0,-89.5"/>
<text text-anchor="middle" x="11.38" y="-102.7" font-family="Times,serif" font-size="14.00">b</text>
<polyline fill="none" stroke="black" points="22.75,-90 22.75,-125.5"/>
<text text-anchor="middle" x="54.75" y="-102.7" font-family="Times,serif" font-size="14.00">data &#45;3.0</text>
</g>
<!-- 4408948304+ -->
<g id="node3" class="node">
<title>4408948304+</title>
<ellipse fill="none" stroke="black" cx="149.75" cy="-103.5" rx="27" ry="18"/>
<text text-anchor="middle" x="149.75" y="-98.45" font-family="Times,serif" font-size="14.00">+</text>
</g>
<!-- 4408616976&#45;&gt;4408948304+ -->
<g id="edge12" class="edge">
<title>4408616976&#45;&gt;4408948304+</title>
<path fill="none" stroke="black" d="M86.53,-105.88C94.76,-105.57 103.33,-105.24 111.39,-104.93"/>
<polygon fill="black" stroke="black" points="111.5,-108.39 121.36,-104.51 111.23,-101.4 111.5,-108.39"/>
</g>
<!-- 4408948304 -->
<g id="node2" class="node">
<title>4408948304</title>
<polygon fill="none" stroke="black" points="212.75,-85.5 212.75,-121.5 298.75,-121.5 298.75,-85.5 212.75,-85.5"/>
<text text-anchor="middle" x="223.75" y="-98.7" font-family="Times,serif" font-size="14.00">c</text>
<polyline fill="none" stroke="black" points="234.75,-86 234.75,-121.5"/>
<text text-anchor="middle" x="266.75" y="-98.7" font-family="Times,serif" font-size="14.00">data &#45;1.0</text>
</g>
<!-- 4408094160* -->
<g id="node5" class="node">
<title>4408094160*</title>
<ellipse fill="none" stroke="black" cx="361.75" cy="-65.5" rx="27" ry="18"/>
<text text-anchor="middle" x="361.75" y="-60.45" font-family="Times,serif" font-size="14.00">*</text>
</g>
<!-- 4408948304&#45;&gt;4408094160* -->
<g id="edge6" class="edge">
<title>4408948304&#45;&gt;4408094160*</title>
<path fill="none" stroke="black" d="M298.45,-88.26C308.04,-84.76 318.11,-81.08 327.29,-77.72"/>
<polygon fill="black" stroke="black" points="328.39,-80.68 336.58,-73.96 325.99,-74.11 328.39,-80.68"/>
</g>
<!-- 4408948304+&#45;&gt;4408948304 -->
<g id="edge1" class="edge">
<title>4408948304+&#45;&gt;4408948304</title>
<path fill="none" stroke="black" d="M176.99,-103.5C184.69,-103.5 193.4,-103.5 202.13,-103.5"/>
<polygon fill="black" stroke="black" points="202.13,-107 212.13,-103.5 202.13,-100 202.13,-107"/>
</g>
<!-- 4408094160 -->
<g id="node4" class="node">
<title>4408094160</title>
<polygon fill="none" stroke="black" points="424.75,-47.5 424.75,-83.5 511.5,-83.5 511.5,-47.5 424.75,-47.5"/>
<text text-anchor="middle" x="436.12" y="-60.7" font-family="Times,serif" font-size="14.00">d</text>
<polyline fill="none" stroke="black" points="447.5,-48 447.5,-83.5"/>
<text text-anchor="middle" x="479.5" y="-60.7" font-family="Times,serif" font-size="14.00">data &#45;2.0</text>
</g>
<!-- 4498362064/ -->
<g id="node7" class="node">
<title>4498362064/</title>
<ellipse fill="none" stroke="black" cx="782" cy="-41.5" rx="27" ry="18"/>
<text text-anchor="middle" x="782" y="-36.45" font-family="Times,serif" font-size="14.00">/</text>
</g>
<!-- 4408094160&#45;&gt;4498362064/ -->
<g id="edge10" class="edge">
<title>4408094160&#45;&gt;4498362064/</title>
<path fill="none" stroke="black" d="M511.19,-62.26C572.6,-57.54 685.83,-48.82 744.15,-44.34"/>
<polygon fill="black" stroke="black" points="744.35,-47.75 754.05,-43.5 743.81,-40.77 744.35,-47.75"/>
</g>
<!-- 4498364368&#45; -->
<g id="node10" class="node">
<title>4498364368&#45;</title>
<ellipse fill="none" stroke="black" cx="574.5" cy="-18.5" rx="27" ry="18"/>
<text text-anchor="middle" x="574.5" y="-13.45" font-family="Times,serif" font-size="14.00">&#45;</text>
</g>
<!-- 4408094160&#45;&gt;4498364368&#45; -->
<g id="edge11" class="edge">
<title>4408094160&#45;&gt;4498364368&#45;</title>
<path fill="none" stroke="black" d="M508.88,-47.6C519.68,-42.73 531.24,-37.53 541.55,-32.89"/>
<polygon fill="black" stroke="black" points="542.69,-35.76 550.37,-28.47 539.81,-29.38 542.69,-35.76"/>
</g>
<!-- 4408094160*&#45;&gt;4408094160 -->
<g id="edge2" class="edge">
<title>4408094160*&#45;&gt;4408094160</title>
<path fill="none" stroke="black" d="M389.09,-65.5C396.73,-65.5 405.36,-65.5 414.03,-65.5"/>
<polygon fill="black" stroke="black" points="413.95,-69 423.95,-65.5 413.95,-62 413.95,-69"/>
</g>
<!-- 4498362064 -->
<g id="node6" class="node">
<title>4498362064</title>
<polygon fill="none" stroke="black" points="845,-23.5 845,-59.5 929.5,-59.5 929.5,-23.5 845,-23.5"/>
<text text-anchor="middle" x="855.25" y="-36.7" font-family="Times,serif" font-size="14.00">f</text>
<polyline fill="none" stroke="black" points="865.5,-24 865.5,-59.5"/>
<text text-anchor="middle" x="897.5" y="-36.7" font-family="Times,serif" font-size="14.00">data &#45;0.5</text>
</g>
<!-- 4498362064/&#45;&gt;4498362064 -->
<g id="edge3" class="edge">
<title>4498362064/&#45;&gt;4498362064</title>
<path fill="none" stroke="black" d="M809.32,-41.5C816.97,-41.5 825.6,-41.5 834.24,-41.5"/>
<polygon fill="black" stroke="black" points="834.12,-45 844.12,-41.5 834.12,-38 834.12,-45"/>
</g>
<!-- 4498366864 -->
<g id="node8" class="node">
<title>4498366864</title>
<polygon fill="none" stroke="black" points="2.62,-34.5 2.62,-70.5 84.12,-70.5 84.12,-34.5 2.62,-34.5"/>
<text text-anchor="middle" x="13.62" y="-47.7" font-family="Times,serif" font-size="14.00">a</text>
<polyline fill="none" stroke="black" points="24.62,-35 24.62,-70.5"/>
<text text-anchor="middle" x="54.38" y="-47.7" font-family="Times,serif" font-size="14.00">data 2.0</text>
</g>
<!-- 4498366864&#45;&gt;4408948304+ -->
<g id="edge7" class="edge">
<title>4498366864&#45;&gt;4408948304+</title>
<path fill="none" stroke="black" d="M81.17,-70.48C93.16,-76.34 106.33,-82.77 117.84,-88.4"/>
<polygon fill="black" stroke="black" points="115.93,-91.85 126.45,-93.09 119,-85.56 115.93,-91.85"/>
</g>
<!-- 4498366864&#45;&gt;4408094160* -->
<g id="edge8" class="edge">
<title>4498366864&#45;&gt;4408094160*</title>
<path fill="none" stroke="black" d="M84.12,-54.13C145.86,-56.67 263.93,-61.52 323.87,-63.98"/>
<polygon fill="black" stroke="black" points="323.57,-67.52 333.71,-64.43 323.86,-60.52 323.57,-67.52"/>
</g>
<!-- 4498366864&#45;&gt;4498364368&#45; -->
<g id="edge5" class="edge">
<title>4498366864&#45;&gt;4498364368&#45;</title>
<path fill="none" stroke="black" d="M84.01,-42.21C126.07,-32.2 194.63,-18.5 254.75,-18.5 254.75,-18.5 254.75,-18.5 362.75,-18.5 423.58,-18.5 494.29,-18.5 536.39,-18.5"/>
<polygon fill="black" stroke="black" points="536.22,-22 546.22,-18.5 536.22,-15 536.22,-22"/>
</g>
<!-- 4498364368 -->
<g id="node9" class="node">
<title>4498364368</title>
<polygon fill="none" stroke="black" points="637.5,-0.5 637.5,-36.5 719,-36.5 719,-0.5 637.5,-0.5"/>
<text text-anchor="middle" x="648.5" y="-13.7" font-family="Times,serif" font-size="14.00">e</text>
<polyline fill="none" stroke="black" points="659.5,-1 659.5,-36.5"/>
<text text-anchor="middle" x="689.25" y="-13.7" font-family="Times,serif" font-size="14.00">data 4.0</text>
</g>
<!-- 4498364368&#45;&gt;4498362064/ -->
<g id="edge9" class="edge">
<title>4498364368&#45;&gt;4498362064/</title>
<path fill="none" stroke="black" d="M718.88,-27.46C727.67,-29.44 736.93,-31.54 745.54,-33.48"/>
<polygon fill="black" stroke="black" points="744.49,-37.06 755.01,-35.85 746.03,-30.23 744.49,-37.06"/>
</g>
<!-- 4498364368&#45;&#45;&gt;4498364368 -->
<g id="edge4" class="edge">
<title>4498364368&#45;&#45;&gt;4498364368</title>
<path fill="none" stroke="black" d="M601.97,-18.5C609.67,-18.5 618.35,-18.5 627,-18.5"/>
<polygon fill="black" stroke="black" points="626.88,-22 636.88,-18.5 626.88,-15 626.88,-22"/>
</g>
</g>
</svg>
