<?xml version="1.0" encoding="UTF-8" standalone="no"?>
<!DOCTYPE svg PUBLIC "-//W3C//DTD SVG 1.1//EN"
 "http://www.w3.org/Graphics/SVG/1.1/DTD/svg11.dtd">
<!-- Generated by graphviz version 10.0.1 (20240210.2158)
 -->
<!-- Pages: 1 -->
<svg width="307pt" height="100pt"
 viewBox="0.00 0.00 306.75 100.00" xmlns="http://www.w3.org/2000/svg" xmlns:xlink="http://www.w3.org/1999/xlink">
<g id="graph0" class="graph" transform="scale(1 1) rotate(0) translate(4 96)">
<polygon fill="white" stroke="none" points="-4,4 -4,-96 302.75,-96 302.75,4 -4,4"/>
<!-- 4673704336 -->
<g id="node1" class="node">
<title>4673704336</title>
<polygon fill="none" stroke="black" points="212.75,-27.5 212.75,-63.5 298.75,-63.5 298.75,-27.5 212.75,-27.5"/>
<text text-anchor="middle" x="223.75" y="-40.7" font-family="Times,serif" font-size="14.00">c</text>
<polyline fill="none" stroke="black" points="234.75,-28 234.75,-63.5"/>
<text text-anchor="middle" x="266.75" y="-40.7" font-family="Times,serif" font-size="14.00">data &#45;1.0</text>
</g>
<!-- 4673704336+ -->
<g id="node2" class="node">
<title>4673704336+</title>
<ellipse fill="none" stroke="black" cx="149.75" cy="-45.5" rx="27" ry="18"/>
<text text-anchor="middle" x="149.75" y="-40.45" font-family="Times,serif" font-size="14.00">+</text>
</g>
<!-- 4673704336+&#45;&gt;4673704336 -->
<g id="edge1" class="edge">
<title>4673704336+&#45;&gt;4673704336</title>
<path fill="none" stroke="black" d="M176.99,-45.5C184.36,-45.5 192.64,-45.5 200.99,-45.5"/>
<polygon fill="black" stroke="black" points="200.81,-49 210.81,-45.5 200.81,-42 200.81,-49"/>
</g>
<!-- 4673702928 -->
<g id="node3" class="node">
<title>4673702928</title>
<polygon fill="none" stroke="black" points="0,-55.5 0,-91.5 86.75,-91.5 86.75,-55.5 0,-55.5"/>
<text text-anchor="middle" x="11.38" y="-68.7" font-family="Times,serif" font-size="14.00">b</text>
<polyline fill="none" stroke="black" points="22.75,-56 22.75,-91.5"/>
<text text-anchor="middle" x="54.75" y="-68.7" font-family="Times,serif" font-size="14.00">data &#45;3.0</text>
</g>
<!-- 4673702928&#45;&gt;4673704336+ -->
<g id="edge2" class="edge">
<title>4673702928&#45;&gt;4673704336+</title>
<path fill="none" stroke="black" d="M87.13,-62.03C95.8,-59.7 104.83,-57.28 113.22,-55.03"/>
<polygon fill="black" stroke="black" points="113.95,-58.46 122.7,-52.49 112.14,-51.7 113.95,-58.46"/>
</g>
<!-- 4673713360 -->
<g id="node4" class="node">
<title>4673713360</title>
<polygon fill="none" stroke="black" points="2.62,-0.5 2.62,-36.5 84.12,-36.5 84.12,-0.5 2.62,-0.5"/>
<text text-anchor="middle" x="13.62" y="-13.7" font-family="Times,serif" font-size="14.00">a</text>
<polyline fill="none" stroke="black" points="24.62,-1 24.62,-36.5"/>
<text text-anchor="middle" x="54.38" y="-13.7" font-family="Times,serif" font-size="14.00">data 2.0</text>
</g>
<!-- 4673713360&#45;&gt;4673704336+ -->
<g id="edge3" class="edge">
<title>4673713360&#45;&gt;4673704336+</title>
<path fill="none" stroke="black" d="M84.43,-28.86C93.81,-31.29 103.74,-33.86 112.92,-36.23"/>
<polygon fill="black" stroke="black" points="112.02,-39.61 122.58,-38.73 113.78,-32.84 112.02,-39.61"/>
</g>
</g>
</svg>
